<?xml version="1.0" encoding="UTF-8"?><svg xmlns="http://www.w3.org/2000/svg" viewBox="0 0 393.98 59.36"><defs><style>.c,.d{fill:#263371;}.d{fill-rule:evenodd;}.e{fill:#231f20;}</style></defs><g id="a"/><g id="b"><g><g><path class="e" d="M22.87,1.12V27.58h-5.11v-11.29H5.76v11.29H.62V1.12H5.76V11.81h12V1.12h5.11Z"/><path class="e" d="M37.19,27.95c-1.57,0-2.98-.27-4.25-.8s-2.35-1.26-3.24-2.18c-.89-.92-1.58-1.99-2.07-3.2-.48-1.22-.73-2.5-.73-3.84s.24-2.7,.71-3.93c.47-1.23,1.16-2.31,2.05-3.24,.89-.93,1.98-1.67,3.26-2.22,1.28-.55,2.71-.82,4.3-.82s3.01,.27,4.27,.82c1.25,.55,2.32,1.28,3.2,2.2,.88,.92,1.55,1.99,2.01,3.2,.46,1.22,.69,2.48,.69,3.8,0,.32,0,.63-.02,.93-.01,.3-.04,.55-.09,.75h-15.09c.07,.77,.26,1.45,.56,2.05,.3,.6,.68,1.11,1.16,1.53,.47,.42,1.01,.75,1.6,.97,.6,.22,1.22,.34,1.86,.34,.99,0,1.93-.24,2.81-.73,.88-.48,1.48-1.12,1.81-1.92l4.29,1.19c-.72,1.49-1.87,2.71-3.45,3.67-1.58,.96-3.46,1.43-5.65,1.43Zm5.07-11.78c-.12-1.47-.67-2.64-1.62-3.52-.96-.88-2.12-1.32-3.48-1.32-.67,0-1.3,.12-1.88,.35-.58,.24-1.1,.57-1.55,.99-.45,.42-.81,.93-1.1,1.53-.29,.6-.45,1.26-.5,1.98h10.14Z"/><path class="e" d="M56.04,27.95c-.94,0-1.83-.16-2.65-.47-.82-.31-1.53-.75-2.12-1.3s-1.06-1.21-1.4-1.96c-.34-.75-.5-1.57-.5-2.46s.21-1.77,.62-2.55c.41-.78,.98-1.45,1.71-1.99,.73-.55,1.61-.98,2.63-1.29,1.02-.31,2.14-.47,3.35-.47,.87,0,1.72,.07,2.55,.22,.83,.15,1.57,.36,2.22,.63v-1.12c0-1.29-.37-2.29-1.1-2.98-.73-.69-1.82-1.04-3.26-1.04-1.04,0-2.06,.19-3.06,.56s-2.01,.92-3.06,1.64l-1.53-3.17c2.51-1.66,5.22-2.5,8.12-2.5s4.99,.69,6.54,2.07c1.55,1.38,2.33,3.37,2.33,5.98v6.07c0,.52,.09,.89,.28,1.12,.19,.22,.49,.35,.91,.37v4.25c-.84,.17-1.58,.26-2.2,.26-.94,0-1.67-.21-2.18-.63-.51-.42-.83-.98-.95-1.68l-.11-1.08c-.87,1.14-1.93,2.01-3.17,2.61-1.24,.6-2.57,.89-3.99,.89Zm1.42-3.65c.84,0,1.65-.15,2.4-.45,.76-.3,1.35-.7,1.77-1.19,.55-.42,.82-.89,.82-1.42v-2.24c-.6-.22-1.24-.4-1.94-.54-.7-.14-1.37-.21-2.01-.21-1.29,0-2.35,.29-3.17,.88-.82,.58-1.23,1.32-1.23,2.22,0,.84,.32,1.55,.97,2.1,.65,.56,1.44,.84,2.39,.84Z"/><path class="e" d="M72.1,.37h4.99V21.32c0,.72,.17,1.28,.52,1.68,.35,.4,.84,.6,1.49,.6,.3,0,.63-.05,.99-.15,.36-.1,.7-.22,1.03-.37l.67,3.8c-.67,.32-1.45,.57-2.35,.75s-1.7,.26-2.42,.26c-1.57,0-2.78-.42-3.63-1.25-.86-.83-1.29-2.02-1.29-3.56V.37Z"/><path class="e" d="M95.07,26.57c-.67,.3-1.49,.6-2.46,.89-.97,.3-1.99,.45-3.06,.45-.7,0-1.35-.09-1.96-.26s-1.14-.45-1.6-.84c-.46-.38-.83-.88-1.1-1.49s-.41-1.35-.41-2.22V11.89h-2.57v-3.84h2.57V1.71h4.99v6.34h4.1v3.84h-4.1v9.54c0,.7,.18,1.19,.54,1.47,.36,.29,.8,.43,1.32,.43s1.03-.09,1.53-.26c.5-.17,.89-.32,1.19-.45l1.01,3.95Z"/><path class="e" d="M115.79,27.58h-4.99v-10.96c0-1.54-.29-2.68-.86-3.41-.57-.73-1.38-1.1-2.42-1.1-.45,0-.92,.1-1.42,.3s-.97,.48-1.42,.84c-.45,.36-.86,.79-1.23,1.29-.37,.5-.65,1.04-.82,1.64v11.4h-4.99V.37h4.99V11.66c.72-1.27,1.7-2.24,2.93-2.93,1.23-.68,2.59-1.03,4.08-1.03,1.27,0,2.3,.22,3.09,.65,.79,.43,1.42,1.01,1.86,1.73,.45,.72,.76,1.54,.93,2.46,.17,.92,.26,1.86,.26,2.83v12.19Z"/><path class="e" d="M128.69,27.58V1.12h11.22c1.22,0,2.34,.26,3.37,.76,1.03,.51,1.92,1.18,2.66,2.01,.75,.83,1.33,1.78,1.75,2.83,.42,1.06,.63,2.12,.63,3.19s-.2,2.21-.6,3.26c-.4,1.06-.96,1.99-1.68,2.81-.72,.82-1.59,1.48-2.61,1.98-1.02,.5-2.14,.75-3.35,.75h-6.26v8.87h-5.14Zm5.14-13.38h5.96c.94,0,1.73-.38,2.37-1.16s.95-1.81,.95-3.13c0-.67-.1-1.27-.3-1.81-.2-.53-.46-.99-.78-1.36-.32-.37-.7-.65-1.14-.84-.44-.19-.88-.28-1.32-.28h-5.74V14.2Z"/><path class="e" d="M151.15,.37h4.99V21.32c0,.72,.17,1.28,.52,1.68,.35,.4,.84,.6,1.49,.6,.3,0,.63-.05,.99-.15,.36-.1,.7-.22,1.03-.37l.67,3.8c-.67,.32-1.45,.57-2.35,.75s-1.7,.26-2.42,.26c-1.57,0-2.78-.42-3.63-1.25-.86-.83-1.29-2.02-1.29-3.56V.37Z"/><path class="e" d="M168.86,27.95c-.94,0-1.83-.16-2.65-.47-.82-.31-1.53-.75-2.12-1.3s-1.06-1.21-1.4-1.96c-.34-.75-.5-1.57-.5-2.46s.21-1.77,.62-2.55c.41-.78,.98-1.45,1.71-1.99s1.61-.98,2.63-1.29c1.02-.31,2.14-.47,3.35-.47,.87,0,1.72,.07,2.55,.22,.83,.15,1.57,.36,2.22,.63v-1.12c0-1.29-.37-2.29-1.1-2.98-.73-.69-1.82-1.04-3.26-1.04-1.04,0-2.06,.19-3.06,.56s-2.01,.92-3.06,1.64l-1.53-3.17c2.51-1.66,5.22-2.5,8.12-2.5s4.99,.69,6.54,2.07c1.55,1.38,2.33,3.37,2.33,5.98v6.07c0,.52,.09,.89,.28,1.12,.19,.22,.49,.35,.91,.37v4.25c-.84,.17-1.58,.26-2.2,.26-.94,0-1.67-.21-2.18-.63-.51-.42-.83-.98-.95-1.68l-.11-1.08c-.87,1.14-1.93,2.01-3.17,2.61-1.24,.6-2.57,.89-3.99,.89Zm1.42-3.65c.84,0,1.65-.15,2.4-.45,.76-.3,1.35-.7,1.77-1.19,.55-.42,.82-.89,.82-1.42v-2.24c-.6-.22-1.24-.4-1.94-.54-.7-.14-1.37-.21-2.01-.21-1.29,0-2.35,.29-3.17,.88-.82,.58-1.23,1.32-1.23,2.22,0,.84,.32,1.55,.97,2.1,.65,.56,1.44,.84,2.39,.84Z"/><path class="e" d="M203.27,27.58h-4.99v-10.96c0-1.57-.27-2.71-.82-3.43-.55-.72-1.3-1.08-2.27-1.08-.5,0-1.01,.1-1.53,.3s-1.01,.48-1.47,.84c-.46,.36-.88,.79-1.25,1.29-.37,.5-.65,1.04-.82,1.64v11.4h-4.99V8.05h4.51v3.62c.72-1.24,1.76-2.21,3.13-2.91,1.37-.69,2.91-1.04,4.62-1.04,1.22,0,2.21,.22,2.98,.67,.77,.45,1.37,1.03,1.79,1.75,.42,.72,.71,1.54,.88,2.46,.16,.92,.24,1.85,.24,2.79v12.19Z"/><path class="e" d="M224.7,27.95c-1.59,0-3.02-.27-4.29-.82s-2.34-1.29-3.22-2.22c-.88-.93-1.56-2.01-2.03-3.22-.47-1.22-.71-2.5-.71-3.84s.24-2.66,.71-3.88c.47-1.22,1.15-2.29,2.03-3.22s1.96-1.67,3.22-2.22c1.27-.55,2.69-.82,4.29-.82s3.01,.27,4.27,.82c1.25,.55,2.32,1.29,3.2,2.22,.88,.93,1.56,2.01,2.03,3.22,.47,1.22,.71,2.51,.71,3.88s-.24,2.62-.71,3.84c-.47,1.22-1.14,2.29-2.01,3.22-.87,.93-1.94,1.67-3.2,2.22s-2.7,.82-4.29,.82Zm-5.11-10.1c0,.87,.13,1.66,.39,2.37,.26,.71,.62,1.32,1.08,1.84,.46,.52,1,.93,1.62,1.21,.62,.29,1.29,.43,2.01,.43s1.39-.14,2.01-.43c.62-.29,1.16-.69,1.62-1.21,.46-.52,.82-1.14,1.08-1.86,.26-.72,.39-1.52,.39-2.38s-.13-1.63-.39-2.35c-.26-.72-.62-1.34-1.08-1.86s-1-.93-1.62-1.21c-.62-.29-1.29-.43-2.01-.43s-1.39,.15-2.01,.45c-.62,.3-1.16,.71-1.62,1.23-.46,.52-.82,1.14-1.08,1.86-.26,.72-.39,1.5-.39,2.35Z"/><path class="e" d="M239.26,27.58V12.89h-2.57v-3.8h2.57v-1.19c0-2.43,.58-4.36,1.75-5.78,1.17-1.42,2.76-2.12,4.77-2.12,1.59,0,3.19,.39,4.81,1.16l-1.01,3.76c-.37-.2-.81-.37-1.32-.5-.51-.14-.97-.21-1.4-.21-1.74,0-2.61,1.17-2.61,3.5v1.38h4.77v3.8h-4.77v14.68h-4.99Z"/><path class="e" d="M265.53,10.62V27.58h-5.14V1.12h3.99l13.79,17.37V1.16h5.14V27.58h-4.17l-13.6-16.96Z"/><path class="e" d="M297.63,27.95c-1.56,0-2.98-.27-4.25-.8s-2.35-1.26-3.24-2.18c-.89-.92-1.58-1.99-2.07-3.2-.48-1.22-.73-2.5-.73-3.84s.24-2.7,.71-3.93c.47-1.23,1.15-2.31,2.05-3.24,.89-.93,1.98-1.67,3.26-2.22,1.28-.55,2.71-.82,4.3-.82s3.01,.27,4.27,.82c1.25,.55,2.32,1.28,3.2,2.2,.88,.92,1.55,1.99,2.01,3.2,.46,1.22,.69,2.48,.69,3.8,0,.32,0,.63-.02,.93s-.04,.55-.09,.75h-15.09c.07,.77,.26,1.45,.56,2.05,.3,.6,.68,1.11,1.15,1.53,.47,.42,1.01,.75,1.6,.97,.6,.22,1.22,.34,1.86,.34,.99,0,1.93-.24,2.81-.73,.88-.48,1.48-1.12,1.81-1.92l4.29,1.19c-.72,1.49-1.87,2.71-3.45,3.67-1.58,.96-3.46,1.43-5.65,1.43Zm5.07-11.78c-.12-1.47-.66-2.64-1.62-3.52-.96-.88-2.12-1.32-3.48-1.32-.67,0-1.3,.12-1.88,.35-.58,.24-1.1,.57-1.55,.99-.45,.42-.81,.93-1.1,1.53-.29,.6-.45,1.26-.5,1.98h10.14Z"/><path class="e" d="M315.56,27.58l-7.19-19.53h5.14l4.96,15.47,4.99-15.47h4.69l-7.19,19.53h-5.4Z"/><path class="e" d="M335.87,27.95c-.94,0-1.83-.16-2.65-.47-.82-.31-1.53-.75-2.12-1.3-.6-.56-1.06-1.21-1.4-1.96-.33-.75-.5-1.57-.5-2.46s.21-1.77,.62-2.55c.41-.78,.98-1.45,1.71-1.99s1.61-.98,2.63-1.29c1.02-.31,2.14-.47,3.35-.47,.87,0,1.72,.07,2.55,.22,.83,.15,1.57,.36,2.22,.63v-1.12c0-1.29-.37-2.29-1.1-2.98-.73-.69-1.82-1.04-3.26-1.04-1.04,0-2.06,.19-3.06,.56s-2.01,.92-3.06,1.64l-1.53-3.17c2.51-1.66,5.22-2.5,8.12-2.5s4.99,.69,6.54,2.07c1.55,1.38,2.33,3.37,2.33,5.98v6.07c0,.52,.09,.89,.28,1.12,.19,.22,.49,.35,.91,.37v4.25c-.84,.17-1.58,.26-2.2,.26-.94,0-1.67-.21-2.18-.63-.51-.42-.83-.98-.95-1.68l-.11-1.08c-.87,1.14-1.93,2.01-3.17,2.61-1.24,.6-2.57,.89-3.99,.89Zm1.42-3.65c.84,0,1.65-.15,2.4-.45,.76-.3,1.35-.7,1.77-1.19,.55-.42,.82-.89,.82-1.42v-2.24c-.6-.22-1.24-.4-1.94-.54-.7-.14-1.37-.21-2.01-.21-1.29,0-2.35,.29-3.17,.88-.82,.58-1.23,1.32-1.23,2.22,0,.84,.32,1.55,.97,2.1,.65,.56,1.44,.84,2.38,.84Z"/><path class="e" d="M360.06,27.95c-1.34,0-2.58-.26-3.73-.78-1.14-.52-2.13-1.24-2.94-2.16-.82-.92-1.46-1.99-1.92-3.22s-.69-2.55-.69-3.97,.22-2.73,.65-3.95c.43-1.22,1.04-2.29,1.81-3.2,.77-.92,1.69-1.64,2.76-2.16,1.07-.52,2.24-.78,3.5-.78,1.44,0,2.74,.35,3.89,1.04,1.15,.7,2.06,1.6,2.7,2.72V.37h4.99V21.84c0,.52,.09,.89,.26,1.12,.17,.22,.47,.35,.89,.37v4.25c-.87,.17-1.58,.26-2.12,.26-.89,0-1.63-.22-2.2-.67-.57-.45-.89-1.03-.97-1.75l-.11-1.23c-.72,1.24-1.69,2.18-2.93,2.81s-2.52,.95-3.86,.95Zm1.3-4.25c.47,0,.96-.08,1.45-.24,.5-.16,.96-.39,1.38-.69,.42-.3,.8-.65,1.14-1.04,.34-.4,.59-.83,.76-1.3v-4.66c-.2-.55-.48-1.05-.84-1.51-.36-.46-.77-.86-1.23-1.19s-.94-.6-1.45-.8c-.51-.2-1.01-.3-1.51-.3-.75,0-1.44,.16-2.07,.48-.63,.32-1.17,.76-1.62,1.32s-.79,1.2-1.04,1.92c-.25,.72-.37,1.47-.37,2.24,0,.82,.14,1.58,.41,2.27,.27,.7,.65,1.3,1.12,1.83,.47,.52,1.04,.93,1.7,1.23s1.38,.45,2.18,.45Z"/><path class="e" d="M381.38,27.95c-.94,0-1.83-.16-2.65-.47-.82-.31-1.53-.75-2.12-1.3-.6-.56-1.06-1.21-1.4-1.96-.33-.75-.5-1.57-.5-2.46s.21-1.77,.62-2.55c.41-.78,.98-1.45,1.71-1.99s1.61-.98,2.63-1.29c1.02-.31,2.14-.47,3.35-.47,.87,0,1.72,.07,2.55,.22,.83,.15,1.57,.36,2.22,.63v-1.12c0-1.29-.37-2.29-1.1-2.98-.73-.69-1.82-1.04-3.26-1.04-1.04,0-2.06,.19-3.06,.56-.99,.37-2.01,.92-3.06,1.64l-1.53-3.17c2.51-1.66,5.22-2.5,8.12-2.5s4.99,.69,6.54,2.07c1.55,1.38,2.33,3.37,2.33,5.98v6.07c0,.52,.09,.89,.28,1.12,.19,.22,.49,.35,.91,.37v4.25c-.84,.17-1.58,.26-2.2,.26-.94,0-1.67-.21-2.18-.63-.51-.42-.83-.98-.95-1.68l-.11-1.08c-.87,1.14-1.93,2.01-3.17,2.61-1.24,.6-2.57,.89-3.99,.89Zm1.42-3.65c.84,0,1.65-.15,2.4-.45,.76-.3,1.35-.7,1.77-1.19,.55-.42,.82-.89,.82-1.42v-2.24c-.6-.22-1.24-.4-1.94-.54-.7-.14-1.37-.21-2.01-.21-1.29,0-2.35,.29-3.17,.88-.82,.58-1.23,1.32-1.23,2.22,0,.84,.32,1.55,.97,2.1,.65,.56,1.44,.84,2.38,.84Z"/></g><g><path class="e" d="M0,52.7l5.73-13.94h1.45l5.71,13.94h-1.88l-1.65-4.08H3.51l-1.63,4.08H0Zm6.46-11.9l-2.59,6.44h5.1l-2.51-6.44Z"/><path class="e" d="M28.15,51.21c.81,0,1.49-.16,2.02-.47,.54-.31,.96-.72,1.29-1.23,.32-.5,.55-1.08,.68-1.73,.13-.65,.2-1.31,.2-1.97v-7.05h1.77v7.05c0,.94-.11,1.84-.32,2.68-.22,.84-.56,1.59-1.03,2.23-.47,.64-1.08,1.15-1.84,1.52-.75,.37-1.67,.56-2.74,.56s-2.05-.2-2.81-.59-1.37-.91-1.84-1.56c-.46-.65-.8-1.39-1-2.24-.2-.84-.3-1.71-.3-2.6v-7.05h1.77v7.05c0,.69,.07,1.36,.21,2.01s.37,1.22,.69,1.72,.75,.9,1.28,1.21c.53,.31,1.19,.46,1.99,.46Z"/><path class="e" d="M47.02,52.7h-1.73v-5.73c0-1.1-.17-1.9-.5-2.4-.33-.5-.84-.75-1.52-.75-.35,0-.71,.07-1.06,.21s-.69,.32-1,.56c-.31,.24-.59,.52-.82,.84s-.41,.69-.53,1.08v6.18h-1.73v-10.25h1.57v2.2c.41-.72,.99-1.3,1.76-1.73,.77-.43,1.6-.65,2.5-.65,.59,0,1.08,.11,1.47,.32,.39,.22,.71,.52,.94,.9,.24,.39,.4,.84,.5,1.36,.1,.52,.15,1.09,.15,1.71v6.13Z"/><path class="e" d="M50.88,40.53v-2.16h1.73v2.16h-1.73Zm0,12.17v-10.25h1.73v10.25h-1.73Z"/><path class="e" d="M61.76,52.19c-.11,.05-.24,.11-.41,.19s-.36,.14-.58,.22c-.22,.07-.45,.13-.71,.18-.26,.05-.52,.07-.8,.07-.63,0-1.17-.17-1.63-.52-.46-.35-.69-.89-.69-1.62v-6.89h-1.39v-1.35h1.39v-3.42h1.73v3.42h2.3v1.35h-2.3v6.36c.03,.38,.15,.65,.37,.82,.22,.17,.48,.26,.79,.26,.34,0,.65-.06,.93-.17,.28-.11,.47-.2,.58-.27l.41,1.37Z"/><path class="e" d="M68.8,52.9c-.77,0-1.48-.14-2.12-.42-.64-.28-1.19-.66-1.65-1.15-.46-.48-.81-1.05-1.07-1.7s-.38-1.33-.38-2.05,.13-1.4,.38-2.04c.26-.64,.62-1.2,1.08-1.69,.46-.48,1.02-.87,1.66-1.15,.64-.28,1.35-.42,2.12-.42s1.48,.14,2.11,.43c.63,.29,1.17,.67,1.62,1.15,.44,.48,.79,1.03,1.03,1.67,.24,.64,.36,1.29,.36,1.97,0,.14,0,.27,0,.39,0,.12-.02,.21-.03,.27h-8.5c.04,.51,.16,.97,.35,1.39,.2,.42,.45,.78,.77,1.08,.31,.3,.67,.54,1.07,.71,.4,.17,.82,.25,1.27,.25,.31,0,.62-.04,.92-.13,.3-.09,.58-.2,.84-.34,.26-.14,.49-.32,.7-.53,.2-.21,.36-.44,.46-.71l1.49,.41c-.17,.38-.4,.73-.7,1.04-.29,.31-.63,.59-1.02,.81-.39,.23-.81,.41-1.29,.54s-.96,.2-1.47,.2Zm3.51-6.01c-.04-.48-.16-.93-.36-1.34-.2-.41-.46-.76-.77-1.05-.31-.29-.66-.51-1.07-.68-.41-.16-.84-.25-1.3-.25s-.89,.08-1.3,.25c-.41,.16-.76,.39-1.07,.69s-.56,.64-.75,1.05-.3,.85-.34,1.33h6.95Z"/><path class="e" d="M81.45,52.9c-.71,0-1.36-.14-1.96-.43-.6-.29-1.12-.67-1.55-1.16-.43-.48-.77-1.05-1.01-1.69-.24-.64-.36-1.32-.36-2.02s.11-1.4,.34-2.05c.23-.65,.55-1.21,.96-1.7,.41-.48,.9-.87,1.47-1.15,.57-.28,1.19-.42,1.87-.42,.82,0,1.56,.22,2.21,.65,.65,.43,1.16,.96,1.54,1.57v-6.13h1.73v12.21c0,.41,.18,.62,.55,.63v1.49c-.14,.03-.27,.05-.38,.06s-.21,.02-.3,.02c-.39,0-.71-.1-.94-.3s-.36-.45-.37-.74l-.04-.96c-.41,.67-.95,1.19-1.62,1.56-.67,.37-1.38,.56-2.13,.56Zm.41-1.49c.31,0,.64-.06,.97-.18,.33-.12,.65-.28,.94-.49,.29-.21,.55-.45,.77-.74,.22-.28,.36-.58,.42-.89v-2.94c-.12-.33-.29-.64-.53-.93-.24-.29-.5-.55-.79-.77-.29-.22-.61-.39-.94-.51-.33-.12-.66-.19-.99-.19-.51,0-.97,.11-1.38,.32s-.77,.5-1.06,.86c-.29,.36-.52,.77-.68,1.24-.16,.46-.24,.94-.24,1.42,0,.51,.09,1,.27,1.46,.18,.46,.43,.87,.75,1.21,.31,.34,.68,.61,1.11,.81,.43,.2,.89,.3,1.38,.3Z"/><path class="e" d="M102.39,38.76v13.94h-1.77v-6.34h-7.68v6.34h-1.77v-13.94h1.77v6.03h7.68v-6.03h1.77Z"/><path class="e" d="M111.29,52.9c-.77,0-1.48-.14-2.12-.42-.64-.28-1.19-.66-1.65-1.15-.46-.48-.81-1.05-1.07-1.7s-.38-1.33-.38-2.05,.13-1.4,.38-2.04c.26-.64,.62-1.2,1.08-1.69,.46-.48,1.02-.87,1.66-1.15,.64-.28,1.35-.42,2.12-.42s1.48,.14,2.11,.43c.63,.29,1.17,.67,1.62,1.15,.44,.48,.79,1.03,1.03,1.67,.24,.64,.36,1.29,.36,1.97,0,.14,0,.27,0,.39,0,.12-.02,.21-.03,.27h-8.5c.04,.51,.16,.97,.35,1.39,.2,.42,.45,.78,.77,1.08,.31,.3,.67,.54,1.07,.71,.4,.17,.82,.25,1.27,.25,.31,0,.62-.04,.92-.13,.3-.09,.58-.2,.84-.34,.26-.14,.49-.32,.7-.53,.2-.21,.36-.44,.46-.71l1.49,.41c-.17,.38-.4,.73-.7,1.04-.29,.31-.63,.59-1.02,.81-.39,.23-.81,.41-1.29,.54s-.96,.2-1.47,.2Zm3.51-6.01c-.04-.48-.16-.93-.36-1.34-.2-.41-.46-.76-.77-1.05-.31-.29-.66-.51-1.07-.68-.41-.16-.84-.25-1.3-.25s-.89,.08-1.3,.25c-.41,.16-.76,.39-1.07,.69s-.56,.64-.75,1.05-.3,.85-.34,1.33h6.95Z"/><path class="e" d="M122.36,52.9c-.51,0-.98-.08-1.41-.25s-.8-.39-1.12-.67c-.31-.28-.56-.62-.74-1-.18-.39-.26-.79-.26-1.23,0-.48,.1-.93,.31-1.33,.21-.4,.51-.74,.89-1.02,.39-.28,.84-.5,1.37-.65s1.11-.23,1.74-.23c.5,0,1,.05,1.51,.14,.51,.09,.96,.22,1.35,.37v-.82c0-.84-.24-1.5-.71-1.97-.47-.48-1.14-.72-2-.72-1.03,0-2.12,.4-3.26,1.2l-.57-1.12c.67-.44,1.33-.78,1.98-1,.65-.22,1.33-.33,2.04-.33,1.31,0,2.34,.36,3.1,1.08,.76,.72,1.14,1.73,1.14,3.04v4.18c0,.41,.18,.62,.55,.63v1.49c-.13,.03-.26,.05-.37,.06s-.23,.02-.33,.02c-.29,0-.57-.08-.84-.24-.28-.16-.43-.43-.45-.8l-.04-.73c-.24,.31-.5,.59-.8,.82-.3,.24-.62,.43-.96,.59s-.69,.27-1.05,.35c-.36,.08-.72,.12-1.07,.12Zm.43-1.3c.55,0,1.09-.12,1.61-.35,.52-.24,.94-.52,1.24-.86,.25-.29,.37-.56,.37-.8v-1.51c-.41-.16-.83-.28-1.29-.36-.45-.09-.89-.13-1.31-.13-.89,0-1.6,.18-2.14,.54-.54,.36-.8,.85-.8,1.48,0,.26,.05,.51,.16,.76,.1,.24,.26,.45,.45,.64,.2,.18,.44,.33,.73,.44,.29,.11,.61,.17,.98,.17Z"/><path class="e" d="M131.67,38.37h1.73v11.68c0,.38,.1,.68,.3,.89s.49,.32,.85,.32c.14,0,.31-.02,.51-.07,.2-.05,.38-.1,.55-.17l.27,1.39c-.29,.12-.63,.22-1.02,.29-.39,.08-.74,.12-1.04,.12-.67,0-1.19-.19-1.58-.57-.39-.38-.58-.91-.58-1.59v-12.31Z"/><path class="e" d="M143.47,52.19c-.11,.05-.24,.11-.41,.19s-.36,.14-.58,.22c-.22,.07-.45,.13-.71,.18-.26,.05-.52,.07-.8,.07-.63,0-1.17-.17-1.63-.52-.46-.35-.69-.89-.69-1.62v-6.89h-1.39v-1.35h1.39v-3.42h1.73v3.42h2.3v1.35h-2.3v6.36c.03,.38,.15,.65,.37,.82,.22,.17,.48,.26,.79,.26,.34,0,.65-.06,.93-.17,.28-.11,.47-.2,.58-.27l.41,1.37Z"/><path class="e" d="M155.11,52.7h-1.73v-5.73c0-1.06-.18-1.85-.55-2.37-.37-.52-.9-.78-1.61-.78-.34,0-.68,.07-1.02,.21s-.66,.32-.95,.56c-.29,.24-.56,.52-.79,.84s-.4,.69-.52,1.08v6.18h-1.73v-14.33h1.73v6.28c.41-.75,.96-1.33,1.65-1.75,.69-.42,1.45-.63,2.28-.63,.6,0,1.11,.11,1.53,.33,.42,.22,.75,.52,1,.9,.25,.38,.43,.83,.54,1.36s.17,1.1,.17,1.7v6.13Z"/><path class="e" d="M158.34,47.56c0-.72,.12-1.4,.37-2.04,.25-.64,.6-1.2,1.06-1.68,.46-.48,1-.86,1.64-1.14,.63-.28,1.34-.42,2.13-.42,1.02,0,1.9,.23,2.64,.68,.74,.45,1.3,1.06,1.68,1.82l-1.69,.53c-.26-.48-.63-.86-1.1-1.13-.47-.27-.99-.4-1.57-.4-.47,0-.92,.1-1.33,.28-.42,.19-.78,.45-1.08,.79-.3,.34-.54,.74-.72,1.2-.18,.46-.27,.96-.27,1.51s.09,1.04,.27,1.51,.43,.88,.74,1.23,.67,.62,1.08,.81c.41,.2,.85,.29,1.32,.29,.3,0,.6-.04,.89-.13,.29-.08,.56-.2,.8-.34,.24-.14,.45-.31,.64-.5s.31-.4,.39-.62l1.69,.51c-.16,.38-.38,.73-.66,1.04-.28,.31-.61,.58-.99,.8-.38,.22-.8,.4-1.27,.53-.46,.13-.95,.2-1.46,.2-.77,0-1.48-.14-2.12-.43-.64-.29-1.19-.67-1.65-1.16-.46-.48-.81-1.05-1.07-1.7s-.38-1.33-.38-2.05Z"/><path class="e" d="M174.06,52.9c-.51,0-.98-.08-1.41-.25s-.8-.39-1.12-.67c-.31-.28-.56-.62-.74-1-.18-.39-.26-.79-.26-1.23,0-.48,.1-.93,.31-1.33,.21-.4,.51-.74,.89-1.02,.39-.28,.84-.5,1.37-.65s1.11-.23,1.74-.23c.5,0,1,.05,1.51,.14,.51,.09,.96,.22,1.35,.37v-.82c0-.84-.24-1.5-.71-1.97-.47-.48-1.14-.72-2-.72-1.03,0-2.12,.4-3.26,1.2l-.57-1.12c.67-.44,1.33-.78,1.98-1,.65-.22,1.33-.33,2.04-.33,1.31,0,2.34,.36,3.1,1.08,.76,.72,1.14,1.73,1.14,3.04v4.18c0,.41,.18,.62,.55,.63v1.49c-.13,.03-.26,.05-.37,.06s-.23,.02-.33,.02c-.29,0-.57-.08-.84-.24-.28-.16-.43-.43-.45-.8l-.04-.73c-.24,.31-.5,.59-.8,.82-.3,.24-.62,.43-.96,.59s-.69,.27-1.05,.35c-.36,.08-.72,.12-1.07,.12Zm.43-1.3c.55,0,1.09-.12,1.61-.35,.52-.24,.94-.52,1.24-.86,.25-.29,.37-.56,.37-.8v-1.51c-.41-.16-.83-.28-1.29-.36-.45-.09-.89-.13-1.31-.13-.89,0-1.6,.18-2.14,.54-.54,.36-.8,.85-.8,1.48,0,.26,.05,.51,.16,.76,.1,.24,.26,.45,.45,.64,.2,.18,.44,.33,.73,.44,.29,.11,.61,.17,.98,.17Z"/><path class="e" d="M188.87,43.96c-.86,.03-1.63,.25-2.29,.67-.66,.42-1.13,1-1.4,1.75v6.32h-1.73v-10.25h1.61v2.38c.35-.71,.82-1.29,1.39-1.76,.58-.46,1.19-.7,1.85-.7h.33c.09,0,.17,0,.24,.02v1.57Z"/><path class="e" d="M196.07,52.9c-.77,0-1.48-.14-2.12-.42-.64-.28-1.19-.66-1.65-1.15-.46-.48-.81-1.05-1.07-1.7s-.38-1.33-.38-2.05,.13-1.4,.38-2.04c.26-.64,.62-1.2,1.08-1.69,.46-.48,1.02-.87,1.66-1.15,.64-.28,1.35-.42,2.12-.42s1.48,.14,2.11,.43c.63,.29,1.17,.67,1.62,1.15,.44,.48,.79,1.03,1.03,1.67,.24,.64,.36,1.29,.36,1.97,0,.14,0,.27,0,.39,0,.12-.02,.21-.03,.27h-8.5c.04,.51,.16,.97,.35,1.39,.2,.42,.45,.78,.77,1.08,.31,.3,.67,.54,1.07,.71,.4,.17,.82,.25,1.27,.25,.31,0,.62-.04,.92-.13,.3-.09,.58-.2,.84-.34,.26-.14,.49-.32,.7-.53,.2-.21,.36-.44,.46-.71l1.49,.41c-.17,.38-.4,.73-.7,1.04-.29,.31-.63,.59-1.02,.81-.39,.23-.81,.41-1.29,.54s-.96,.2-1.47,.2Zm3.51-6.01c-.04-.48-.16-.93-.36-1.34-.2-.41-.46-.76-.77-1.05-.31-.29-.66-.51-1.07-.68-.41-.16-.84-.25-1.3-.25s-.89,.08-1.3,.25c-.41,.16-.76,.39-1.07,.69s-.56,.64-.75,1.05-.3,.85-.34,1.33h6.95Z"/><path class="e" d="M210.2,45.63c0-.84,.15-1.67,.44-2.5,.29-.83,.73-1.58,1.3-2.24,.57-.66,1.27-1.19,2.09-1.6,.82-.41,1.76-.61,2.81-.61,1.24,0,2.31,.28,3.2,.84,.89,.56,1.55,1.3,1.98,2.2l-1.39,.9c-.21-.44-.46-.82-.76-1.12-.29-.3-.62-.54-.96-.73-.35-.18-.7-.31-1.07-.39-.37-.08-.73-.12-1.08-.12-.77,0-1.46,.16-2.05,.48s-1.1,.74-1.5,1.26c-.41,.52-.71,1.1-.91,1.75-.2,.65-.3,1.3-.3,1.95,0,.73,.12,1.43,.36,2.09,.24,.66,.58,1.25,1.01,1.76,.43,.51,.94,.92,1.53,1.22,.59,.3,1.23,.45,1.92,.45,.37,0,.74-.05,1.13-.14,.39-.09,.76-.24,1.11-.44,.35-.2,.68-.46,.99-.77,.31-.31,.56-.68,.76-1.11l1.47,.8c-.22,.52-.53,.98-.93,1.38s-.85,.74-1.35,1.01c-.5,.28-1.04,.48-1.6,.63s-1.11,.22-1.65,.22c-.96,0-1.83-.21-2.63-.63-.8-.42-1.49-.96-2.07-1.64-.58-.67-1.03-1.44-1.35-2.3-.32-.86-.48-1.73-.48-2.62Z"/><path class="e" d="M229.99,52.9c-.77,0-1.48-.14-2.11-.43-.64-.29-1.18-.67-1.63-1.16-.45-.48-.8-1.05-1.05-1.69-.25-.64-.37-1.32-.37-2.02s.13-1.4,.38-2.04c.26-.64,.61-1.2,1.06-1.69,.45-.48,.99-.87,1.63-1.16,.63-.29,1.33-.43,2.09-.43s1.46,.14,2.1,.43c.64,.29,1.19,.67,1.64,1.16,.45,.48,.8,1.05,1.06,1.69,.26,.64,.38,1.32,.38,2.04s-.12,1.38-.37,2.02c-.25,.64-.6,1.2-1.06,1.69-.46,.48-1,.87-1.64,1.16-.64,.29-1.34,.43-2.11,.43Zm-3.4-5.28c0,.54,.09,1.03,.27,1.49,.18,.46,.42,.86,.73,1.2,.31,.34,.67,.61,1.08,.81,.41,.2,.85,.29,1.32,.29s.91-.1,1.33-.29c.41-.2,.78-.47,1.09-.81s.56-.75,.74-1.22c.18-.46,.27-.96,.27-1.5s-.09-1.02-.27-1.48c-.18-.46-.42-.87-.74-1.22-.31-.35-.68-.62-1.09-.81-.41-.2-.85-.29-1.33-.29s-.91,.1-1.32,.3c-.41,.2-.77,.48-1.08,.82-.31,.35-.55,.75-.73,1.22-.18,.46-.27,.96-.27,1.5Z"/><path class="e" d="M253.93,52.7h-1.73v-5.73c0-1.07-.17-1.87-.52-2.38-.35-.51-.86-.77-1.54-.77s-1.34,.25-1.89,.76-.95,1.16-1.19,1.95v6.16h-1.73v-5.73c0-1.1-.17-1.9-.51-2.4-.34-.5-.85-.75-1.53-.75s-1.32,.25-1.88,.74c-.56,.49-.96,1.14-1.2,1.95v6.18h-1.73v-10.25h1.57v2.2c.42-.76,.96-1.34,1.63-1.76,.67-.41,1.42-.62,2.26-.62s1.55,.23,2.05,.7c.5,.46,.81,1.06,.93,1.8,.92-1.66,2.22-2.49,3.91-2.49,.59,0,1.08,.11,1.48,.32,.4,.22,.72,.52,.95,.9,.24,.39,.41,.84,.51,1.36,.1,.52,.16,1.09,.16,1.71v6.13Z"/><path class="e" d="M263.31,52.9c-.85,0-1.6-.21-2.25-.63s-1.16-.95-1.54-1.59v6.2h-1.73v-14.43h1.53v1.92c.41-.63,.93-1.14,1.58-1.52,.65-.39,1.36-.58,2.15-.58,.71,0,1.35,.14,1.94,.43,.59,.29,1.1,.68,1.53,1.17s.77,1.06,1.01,1.7c.24,.64,.36,1.31,.36,2,0,.73-.11,1.42-.33,2.07-.22,.65-.54,1.21-.94,1.69-.41,.48-.89,.86-1.45,1.14-.56,.28-1.18,.42-1.86,.42Zm-.53-1.49c.51,0,.97-.11,1.38-.32s.77-.5,1.06-.86c.29-.36,.52-.77,.68-1.23,.16-.46,.24-.93,.24-1.41,0-.51-.09-1-.27-1.46-.18-.46-.43-.87-.75-1.22-.31-.35-.68-.62-1.11-.82-.43-.2-.89-.3-1.38-.3-.31,0-.64,.06-.97,.19-.33,.12-.65,.29-.94,.49-.29,.2-.55,.44-.77,.73-.22,.28-.36,.58-.42,.89v2.92c.14,.34,.33,.66,.55,.95,.22,.29,.48,.55,.77,.77,.29,.22,.6,.39,.92,.51,.33,.12,.67,.19,1.02,.19Z"/><path class="e" d="M274.01,52.9c-.51,0-.98-.08-1.41-.25s-.8-.39-1.12-.67c-.31-.28-.56-.62-.74-1-.18-.39-.26-.79-.26-1.23,0-.48,.1-.93,.31-1.33,.21-.4,.51-.74,.89-1.02,.39-.28,.84-.5,1.37-.65s1.11-.23,1.74-.23c.5,0,1,.05,1.51,.14,.51,.09,.96,.22,1.35,.37v-.82c0-.84-.24-1.5-.71-1.97-.47-.48-1.14-.72-2-.72-1.03,0-2.12,.4-3.26,1.2l-.57-1.12c.67-.44,1.33-.78,1.98-1,.65-.22,1.33-.33,2.04-.33,1.31,0,2.34,.36,3.1,1.08,.76,.72,1.14,1.73,1.14,3.04v4.18c0,.41,.18,.62,.55,.63v1.49c-.13,.03-.26,.05-.37,.06s-.23,.02-.33,.02c-.29,0-.57-.08-.84-.24-.28-.16-.43-.43-.45-.8l-.04-.73c-.24,.31-.5,.59-.8,.82-.3,.24-.62,.43-.96,.59s-.69,.27-1.05,.35c-.36,.08-.72,.12-1.07,.12Zm.43-1.3c.55,0,1.09-.12,1.61-.35,.52-.24,.94-.52,1.24-.86,.25-.29,.37-.56,.37-.8v-1.51c-.41-.16-.83-.28-1.29-.36-.45-.09-.89-.13-1.31-.13-.89,0-1.6,.18-2.14,.54-.54,.36-.8,.85-.8,1.48,0,.26,.05,.51,.16,.76,.1,.24,.26,.45,.45,.64,.2,.18,.44,.33,.73,.44,.29,.11,.61,.17,.98,.17Z"/><path class="e" d="M292.29,52.7h-1.73v-5.73c0-1.1-.17-1.9-.5-2.4-.33-.5-.84-.75-1.52-.75-.35,0-.71,.07-1.06,.21s-.69,.32-1,.56c-.31,.24-.59,.52-.82,.84s-.41,.69-.53,1.08v6.18h-1.73v-10.25h1.57v2.2c.41-.72,.99-1.3,1.76-1.73,.77-.43,1.6-.65,2.5-.65,.59,0,1.08,.11,1.47,.32,.39,.22,.71,.52,.94,.9,.24,.39,.4,.84,.5,1.36,.1,.52,.15,1.09,.15,1.71v6.13Z"/><path class="e" d="M296.2,55.51c.35,.04,.67,.06,.94,.06,.12,0,.23-.03,.33-.08,.1-.05,.22-.18,.35-.37,.13-.2,.28-.48,.45-.86,.17-.38,.38-.9,.63-1.55l-4.34-10.25h1.79l3.49,8.7,3.18-8.7h1.65l-5.03,12.94c-.24,.62-.58,1.06-1.02,1.33-.45,.27-.97,.4-1.57,.4-.14,0-.29,0-.43-.02-.14-.01-.29-.04-.43-.08v-1.51Z"/></g><g><path class="c" d="M317.56,46.01c.52,.45,4.01,2.33,4.37,2.35,.17-.07,2.06-1.17,3.15-1.83,5.93-3.6,13.46-8.17,15.61-9.43,.32-.19,.53-.27,.72-.27s.34,.08,.55,.19c.05,.03,.1,.06,.16,.09,.72,.37,1.94,1.05,3.36,1.84,1.33,.74,2.83,1.58,4.4,2.43l.71,.38c.87,.47,2.19,1.18,2.35,1.23,.31-.03,3.64-2.02,4.22-2.52-.72-.53-5.99-3.42-9.15-5.15l-.1-.05c-1.61-.88-2.89-1.58-3.37-1.86-.41-.26-1.56-.85-3.18-.85-1.25,0-2.41,.35-3.45,1.05-1.41,.92-5.14,3.15-9.1,5.51h-.01c-4.96,2.97-10.58,6.32-11.23,6.89Z"/><path class="c" d="M323.37,49.46c.51,.43,4.04,2.33,4.37,2.35,.17-.07,2.04-1.16,3.15-1.83,1.99-1.21,3.65-2.24,5.12-3.15l.11-.07c1.93-1.19,3.45-2.13,4.77-2.9,.36-.21,.55-.28,.73-.28s.32,.08,.54,.2l.09,.05c.65,.35,1.45,.8,2.21,1.24l.05,.03c1.25,.72,2.43,1.39,2.9,1.56,.32-.05,3.62-2.04,4.19-2.53-.57-.41-3.96-2.28-6.22-3.52l-.14-.08c-1.28-.7-2.38-1.3-2.89-1.6-.38-.21-.65-.37-.9-.37-.19,0-.31,.08-.53,.22-1.1,.68-3.17,1.92-5.58,3.35l-.22,.13c-4.67,2.79-11.06,6.59-11.74,7.2Z"/><path class="c" d="M331.81,51.45c.71,.52,5.93,3.38,9.07,5.1l.26,.14c1.58,.86,2.82,1.55,3.3,1.82,.28,.23,1.56,.85,3.18,.85,1.25,0,2.41-.35,3.45-1.05,1.42-.93,5.33-3.26,9.1-5.51l.05-.03c4.7-2.8,10.53-6.28,11.19-6.86-.52-.45-4.01-2.33-4.36-2.35-.18,.07-2.11,1.2-3.15,1.83-3.01,1.83-13.03,7.91-15.61,9.43-.32,.19-.53,.27-.72,.27s-.34-.08-.55-.19l-.05-.03s-.07-.04-.11-.06c-.72-.37-1.91-1.03-3.42-1.87l-.03-.02c-1.3-.72-2.78-1.55-4.3-2.37l-.66-.36c-.78-.42-2.23-1.21-2.4-1.26-.31,.03-3.64,2.02-4.22,2.52Z"/><path class="c" d="M337.43,47.87c.57,.41,3.97,2.28,6.23,3.51l.06,.03c1.31,.72,2.45,1.34,2.97,1.64,.37,.26,.65,.37,.9,.37,.19,0,.36-.07,.53-.23,1.1-.68,3.18-1.92,5.6-3.36l.16-.1c4.69-2.79,11.09-6.61,11.78-7.22-.51-.44-3.99-2.31-4.37-2.35-.22,.1-2.05,1.17-3.15,1.83-2,1.21-3.66,2.24-5.13,3.15-1.97,1.22-3.53,2.18-4.88,2.96-.36,.21-.55,.28-.73,.28s-.33-.08-.54-.2l-.09-.05c-.67-.36-1.51-.84-2.24-1.26-1.26-.72-2.45-1.4-2.92-1.57-.32,.05-3.62,2.04-4.19,2.53Z"/></g><g><path class="d" d="M370.99,53.28c0,1.3-1.05,2.34-2.34,2.34s-2.33-1.05-2.33-2.34c0-1.29,1.04-2.33,2.33-2.33s2.34,1.04,2.34,2.33h0Zm.46,0c0-1.55-1.26-2.8-2.8-2.8s-2.79,1.25-2.79,2.79c0,1.55,1.24,2.81,2.79,2.81s2.8-1.26,2.8-2.81h0Z"/><path class="d" d="M369.72,54.21c-.25-.4-.44-.66-.7-.75h0c.51-.04,.86-.39,.86-.88,0-.32-.25-.79-1-.79h-1.33v3.01h.48v-1.28h.29c.37,0,.52,.13,.9,.81l.26,.47h.59l-.37-.59h0Zm-.98-1.11h-.7v-.9h.78c.32,0,.54,.17,.54,.45,0,.31-.25,.45-.62,.45h0Z"/></g></g></g></svg>